<svg width="50" height="38" viewBox="0 0 50 38" fill="none" xmlns="http://www.w3.org/2000/svg">
<path d="M19.1042 22.8633L13.4083 17.0916C12.8229 16.4983 12.5 15.7088 12.5 14.8707C12.5 14.0326 12.8229 13.243 13.4083 12.6477L19.1958 6.78511L20.6687 8.27767L14.8812 14.1402C14.6896 14.3344 14.5833 14.5941 14.5833 14.8707C14.5833 15.1472 14.6896 15.4048 14.8812 15.599L20.5771 21.3708L19.1042 22.8633ZM35.2167 15.599L29.4729 21.4193L30.9458 22.9119L36.6896 17.0916C37.8979 15.8671 37.8979 13.8742 36.6896 12.6477L30.8542 6.73444L29.3812 8.227L35.2167 14.1402C35.6146 14.5413 35.6146 15.1958 35.2167 15.599ZM50 27.4444V32.7222C50 35.6313 47.6625 38 44.7917 38H5.20833C2.3375 38 0 35.6313 0 32.7222V27.4444H4.16667V0H45.8333V27.4444H50ZM6.25 27.4444H18.1396L20.2229 29.5556H29.7771L31.8604 27.4444H43.75V2.11111H6.25V27.4444ZM47.9167 29.5556H32.7229L30.6396 31.6667H19.3604L17.2771 29.5556H2.08333V32.7222C2.08333 34.4681 3.48542 35.8889 5.20833 35.8889H44.7917C46.5146 35.8889 47.9167 34.4681 47.9167 32.7222V29.5556Z" fill="#A2938E"/>
</svg>
