<svg width="30" height="30" viewBox="0 0 30 30" fill="none" xmlns="http://www.w3.org/2000/svg">
<path d="M2.19668 17.2035L7.53343 11.8882L8.41434 12.7743L3.07885 18.0884C0.642259 20.5254 0.642259 24.491 3.07885 26.9268C5.50793 29.3576 9.4627 29.3601 11.8955 26.9268L11.8993 26.9305L13.8923 24.9372C14.2522 24.9759 14.6158 24.9996 14.9831 24.9996C15.1993 24.9996 15.413 24.9821 15.6266 24.9684L12.7802 27.8154C12.7652 27.8304 12.7452 27.8354 12.729 27.8491C11.2758 29.2789 9.38148 30 7.48469 30C5.56791 30 3.65238 29.2701 2.19293 27.8116C-0.730976 24.8872 -0.730976 20.1305 2.19293 17.2048L2.19668 17.2035ZM14.9844 22.4938C15.8815 22.4938 16.7762 22.3189 17.6271 21.9977L16.6275 20.9966C14.5383 21.5665 12.2142 21.0578 10.5773 19.4206C9.5889 18.4321 9.02537 17.1898 8.84044 15.9025L7.79333 16.9498C8.12195 18.1771 8.73423 19.3431 9.69512 20.3042C11.1546 21.7627 13.0701 22.4926 14.9869 22.4926L14.9844 22.4938ZM0.0812196 0.94768L29.0454 29.9188L29.9288 29.0352L20.7385 19.8431L27.8071 12.7931C30.731 9.86859 30.731 5.11069 27.8071 2.18621C24.9032 -0.717023 20.1924 -0.728271 17.2685 2.14997C17.2535 2.16246 17.2348 2.16746 17.2198 2.18246L14.3734 5.02945C14.587 5.0157 14.8007 4.99821 15.0169 4.99821C15.3842 4.99821 15.7478 5.02195 16.1077 5.0607L18.1007 3.0673L18.1045 3.07105C20.5348 0.641485 24.4896 0.642735 26.9212 3.07105C29.3577 5.50812 29.3577 9.47366 26.9212 11.9095L19.8513 18.9595L11.0821 10.1885C13.5287 8.18264 17.1398 8.29512 19.4227 10.576C20.4111 11.5645 20.9759 12.8068 21.1596 14.0941L22.2067 13.0468C21.878 11.8195 21.2658 10.6534 20.3049 9.69237C17.5347 6.92161 13.1363 6.81413 10.1974 9.30494L0.964638 0.0640877L0.0812196 0.94768Z" fill="#A2938E"/>
</svg>
