<svg width="40" height="40" viewBox="0 0 40 40" fill="none" xmlns="http://www.w3.org/2000/svg">
<path d="M23.3333 8.81667C22.2833 8.5 21.15 8.33333 20 8.33333C13.5667 8.33333 8.33333 13.5667 8.33333 20C8.33333 26.4333 13.5667 31.6667 20 31.6667C26.4333 31.6667 31.6667 26.4333 31.6667 20C31.6667 18.85 31.5 17.7167 31.1833 16.6667H32.9167C33.2 17.7333 33.3333 18.85 33.3333 20C33.3333 27.35 27.35 33.3333 20 33.3333C12.65 33.3333 6.66667 27.35 6.66667 20C6.66667 12.65 12.65 6.66667 20 6.66667C21.15 6.66667 22.2667 6.81667 23.3333 7.08333V8.81667ZM19 15.1L20.7333 13.3667C20.5 13.3333 20.25 13.3333 20 13.3333C16.3167 13.3333 13.3333 16.3167 13.3333 20C13.3333 23.6833 16.3167 26.6667 20 26.6667C23.6833 26.6667 26.6667 23.6833 26.6667 20C26.6667 19.75 26.6667 19.5 26.6333 19.2667L24.9 21C24.4333 23.2833 22.4167 25 20 25C17.25 25 15 22.75 15 20C15 17.5833 16.7167 15.5667 19 15.1ZM37.6167 14.95C38.0833 16.55 38.3333 18.25 38.3333 20C38.3333 30.1167 30.1167 38.3333 20 38.3333C9.88333 38.3333 1.66667 30.1167 1.66667 20C1.66667 9.88333 9.88333 1.66667 20 1.66667C21.75 1.66667 23.45 1.91667 25.05 2.38333L26.3667 1.05C24.3667 0.366667 22.2167 0 19.9833 0C8.96667 0 0 8.96667 0 20C0 31.0333 8.96667 40 20 40C31.0333 40 40 31.0333 40 20C40 17.7667 39.6333 15.6333 38.9667 13.6333L37.6333 14.95H37.6167ZM40 6.66667V7.85L34.5167 13.3333H27.85L20.6 20.5833L19.4167 19.4L26.6667 12.15V5.48333L32.0833 0H33.3333V6.66667H40ZM37.2167 8.33333H31.6667V2.8L28.3333 6.18333V11.6667H33.8167L37.2 8.33333H37.2167Z" fill="#A2938E"/>
</svg>
