<svg width="40" height="40" viewBox="0 0 40 40" fill="none" xmlns="http://www.w3.org/2000/svg">
<g clip-path="url(#clip0_708_12)">
<path d="M24.5104 0H7.4987C5.20036 0 3.33203 1.87 3.33203 4.16667V40H36.6654V12.155L24.5104 0ZM24.9987 2.845L33.8204 11.6667H24.9987V2.845ZM4.9987 38.3333V4.16667C4.9987 2.78833 6.12036 1.66667 7.4987 1.66667H23.332V13.3333H34.9987V38.3333H4.9987ZM9.9987 16.6667H29.9987V18.3333H9.9987V16.6667ZM9.9987 23.3333H29.9987V25H9.9987V23.3333ZM28.4737 29.535L29.8587 30.4633C29.7804 30.58 27.902 33.335 24.1654 33.335C22.0754 33.335 20.7637 32.615 19.607 31.98C18.4887 31.3667 17.522 30.835 15.8754 30.835H15.8387C13.1554 30.8483 11.517 32.98 11.5004 33L10.1637 32.005C10.2487 31.89 12.2937 29.1867 15.827 29.1683H15.872C17.947 29.1683 19.2537 29.885 20.4087 30.5183C21.532 31.135 22.5037 31.6683 24.1654 31.6683C26.987 31.6683 28.4154 29.6217 28.4737 29.535Z" fill="#A2938E"/>
</g>
<defs>
<clipPath id="clip0_708_12">
<rect width="40" height="40" fill="white"/>
</clipPath>
</defs>
</svg>
