<svg width="40" height="40" viewBox="0 0 40 40" fill="none" xmlns="http://www.w3.org/2000/svg">
<path d="M10.8333 8.33333C13.13 8.33333 15 6.465 15 4.16667C15 1.86833 13.13 0 10.8333 0C8.53667 0 6.66667 1.86833 6.66667 4.16667C6.66667 6.465 8.53667 8.33333 10.8333 8.33333ZM10.8333 1.66667C12.2117 1.66667 13.3333 2.78833 13.3333 4.16667C13.3333 5.545 12.2117 6.66667 10.8333 6.66667C9.455 6.66667 8.33333 5.545 8.33333 4.16667C8.33333 2.78833 9.455 1.66667 10.8333 1.66667ZM35 38.3333V40H30.205L26.8717 28.3333H14.1667C11.87 28.3333 10 26.465 10 24.1667V11.6667H11.6667V18.3333H25V20H11.6667V24.1667C11.6667 25.545 12.7883 26.6667 14.1667 26.6667H28.1283L31.4617 38.3333H35ZM24.3567 31.6667L24.8333 33.3333H14.1667C9.11167 33.3333 5 29.22 5 24.1667V11.6667H6.66667V24.1667C6.66667 28.3017 10.0317 31.6667 14.1667 31.6667H24.3567Z" fill="#A2938E"/>
</svg>
