<svg width="40" height="40" viewBox="0 0 40 40" fill="none" xmlns="http://www.w3.org/2000/svg">
<path d="M20 20C25.515 20 30 15.515 30 10C30 4.485 25.515 0 20 0C14.485 0 10 4.485 10 10C10 15.515 14.485 20 20 20ZM20 1.66667C24.595 1.66667 28.3333 5.405 28.3333 10C28.3333 14.595 24.595 18.3333 20 18.3333C15.405 18.3333 11.6667 14.595 11.6667 10C11.6667 5.405 15.405 1.66667 20 1.66667ZM35 31.6667V40H33.3333V31.6667C33.3333 27.99 30.3433 25 26.6667 25H13.3333C9.65667 25 6.66667 27.99 6.66667 31.6667V40H5V31.6667C5 27.0717 8.73833 23.3333 13.3333 23.3333H26.6667C31.2617 23.3333 35 27.0717 35 31.6667Z" fill="#A2938E"/>
</svg>
